<?xml version="1.0" standalone="no"?>
<!DOCTYPE svg PUBLIC "-//W3C//DTD SVG 20010904//EN"
 "http://www.w3.org/TR/2001/REC-SVG-20010904/DTD/svg10.dtd">
<svg version="1.0" xmlns="http://www.w3.org/2000/svg"
 width="426.000000pt" height="362.000000pt" viewBox="0 0 426.000000 362.000000"
 preserveAspectRatio="xMidYMid meet">

<g transform="translate(0.000000,362.000000) scale(0.100000,-0.100000)"
fill="#000000" stroke="none">
<path d="M2069 3517 c-156 -257 -205 -337 -239 -392 -21 -33 -158 -258 -305
-500 -147 -242 -278 -456 -290 -475 -50 -80 -106 -172 -175 -285 -40 -66 -83
-137 -97 -158 -13 -21 -32 -52 -42 -70 -18 -31 -59 -98 -230 -377 -46 -74 -85
-138 -88 -143 -2 -4 685 -7 1527 -7 l1532 0 -14 23 c-8 12 -79 128 -157 257
-79 129 -153 251 -166 270 -12 19 -78 127 -147 240 -215 352 -519 850 -592
970 -39 64 -156 256 -261 428 -104 171 -192 312 -195 312 -3 -1 -30 -42 -61
-93z m95 -172 c15 -30 31 -57 36 -60 5 -3 15 -18 23 -33 30 -59 60 -108 77
-127 23 -26 67 -97 103 -165 16 -30 40 -69 53 -87 13 -17 24 -34 24 -37 0 -3
18 -32 40 -63 22 -32 40 -63 40 -68 0 -6 12 -23 26 -38 15 -16 40 -54 57 -85
16 -32 33 -59 37 -62 11 -8 75 -112 91 -147 7 -18 17 -33 21 -33 4 0 17 -17
28 -37 11 -21 26 -47 33 -58 36 -58 57 -96 57 -105 0 -6 11 -23 24 -37 13 -14
30 -37 38 -52 7 -14 16 -28 19 -31 3 -3 17 -22 31 -43 14 -21 28 -35 30 -30 3
4 3 2 2 -5 -3 -11 13 -49 26 -62 14 -13 60 -91 60 -100 0 -6 7 -13 15 -16 8
-4 15 -11 15 -18 0 -6 18 -38 41 -71 22 -33 49 -78 61 -100 11 -22 49 -83 83
-135 76 -115 86 -135 77 -145 -4 -3 -1 -5 7 -3 9 2 24 -13 35 -35 12 -20 40
-51 64 -68 23 -17 42 -32 42 -35 0 -2 -35 14 -77 35 -78 39 -143 63 -113 42
10 -7 -392 -10 -1302 -11 -874 0 -1318 3 -1318 10 0 5 5 10 11 10 5 0 17 17
25 38 9 20 25 47 36 59 12 13 18 29 14 39 -4 11 -2 15 7 11 9 -3 21 7 30 26
19 36 33 59 63 102 11 17 36 59 56 95 20 36 48 79 62 95 14 17 26 38 26 47 0
9 6 21 13 25 14 9 67 89 67 101 0 5 9 17 20 27 11 10 20 24 20 31 0 7 6 17 13
21 6 4 27 37 45 73 18 36 47 83 63 105 16 22 38 58 49 80 27 53 39 72 76 120
33 43 49 74 45 90 -2 6 1 7 5 3 7 -8 74 94 74 113 0 5 5 9 10 9 6 0 10 4 10
10 0 5 20 39 45 76 25 36 45 70 45 75 0 5 6 12 14 15 8 3 17 17 21 32 4 15 18
42 32 61 14 18 37 55 52 81 14 27 37 62 51 78 36 41 52 71 44 84 -4 6 -3 8 2
5 6 -3 26 21 45 55 39 69 44 78 82 135 15 24 27 47 27 53 0 5 3 10 8 10 4 0
16 18 26 40 11 22 22 40 26 40 4 0 20 -25 34 -55z m-970 -1391 c3 -8 2 -12 -4
-9 -6 3 -10 10 -10 16 0 14 7 11 14 -7z m2276 -640 c0 -8 -19 -13 -24 -6 -3 5
1 9 9 9 8 0 15 -2 15 -3z"/>
<path d="M60 840 c0 -7 697 -10 2070 -10 1373 0 2070 3 2070 10 0 7 -697 10
-2070 10 -1373 0 -2070 -3 -2070 -10z"/>
<path d="M1840 701 c-88 -29 -130 -75 -130 -144 0 -92 53 -119 278 -137 149
-12 174 -19 197 -53 18 -28 10 -61 -21 -89 -64 -56 -264 -49 -386 13 l-42 21
-24 -27 -24 -28 24 -18 c77 -60 299 -88 423 -54 40 10 78 29 101 49 34 30 38
38 42 94 4 59 3 63 -30 96 -42 42 -82 54 -228 66 -149 13 -180 18 -208 36 -31
20 -26 60 11 88 25 18 42 21 135 21 86 0 120 -5 175 -24 l68 -23 25 23 c30 28
21 41 -54 70 -45 18 -83 23 -182 25 -69 2 -136 0 -150 -5z"/>
<path d="M3763 699 c-84 -24 -133 -79 -133 -149 0 -41 51 -94 106 -109 21 -5
101 -15 178 -21 152 -12 192 -25 202 -67 29 -112 -212 -152 -405 -67 l-54 24
-16 -22 c-9 -13 -16 -27 -16 -33 0 -17 106 -64 170 -76 91 -17 249 -7 311 20
59 26 104 85 104 138 0 97 -70 137 -266 154 -159 13 -200 23 -220 54 -13 19
-13 27 -2 44 21 34 66 46 173 46 80 0 113 -5 168 -25 l69 -24 19 24 c10 14 19
28 19 31 0 8 -83 44 -135 58 -48 13 -227 13 -272 0z"/>
<path d="M90 440 l0 -260 275 0 275 0 0 35 0 35 -232 2 -233 3 -3 78 -3 77
156 0 155 0 0 40 0 40 -155 0 -156 0 3 68 3 67 223 3 222 2 0 35 0 35 -265 0
-265 0 0 -260z"/>
<path d="M870 440 l0 -260 40 0 40 0 0 210 c0 116 4 210 9 210 4 0 55 -51 112
-112 57 -62 137 -148 178 -191 41 -43 81 -87 88 -97 11 -16 26 -20 69 -20 l54
0 0 260 0 260 -40 0 -40 0 0 -217 -1 -218 -42 46 c-23 25 -113 123 -200 217
l-159 172 -54 0 -54 0 0 -260z"/>
<path d="M2520 440 l0 -260 40 0 40 0 0 260 0 260 -40 0 -40 0 0 -260z"/>
<path d="M3037 618 c-105 -194 -227 -427 -227 -432 0 -3 19 -6 43 -6 41 0 43
1 72 58 l30 57 181 3 180 2 29 -60 c29 -60 29 -60 72 -60 24 0 43 3 43 6 0 3
-38 76 -84 162 -46 86 -107 200 -135 252 l-50 95 -54 3 -55 3 -45 -83z m167
-112 c36 -68 66 -126 66 -130 0 -3 -61 -6 -135 -6 -74 0 -135 2 -135 6 0 3 13
28 29 57 16 29 45 85 65 125 20 39 38 72 41 72 2 0 33 -56 69 -124z"/>
<path d="M60 70 c0 -7 697 -10 2070 -10 1373 0 2070 3 2070 10 0 7 -697 10
-2070 10 -1373 0 -2070 -3 -2070 -10z"/>
</g>
</svg>
